<svg xmlns="http://www.w3.org/2000/svg" viewBox="0 0 512 512">
  <defs>
    <linearGradient id="bg" x1="0%" y1="0%" x2="100%" y2="100%">
      <stop offset="0%" style="stop-color:#34C759"/>
      <stop offset="100%" style="stop-color:#30D158"/>
    </linearGradient>
  </defs>
  <rect width="512" height="512" rx="115" fill="url(#bg)"/>
  <g transform="translate(128, 80) scale(1.5)" fill="#FFFFFF">
    <circle cx="85" cy="22" r="22"/>
    <path d="M62 58L42 155h13l11-55 13 14v42h13V107L79 93l4-21c7.8 11.7 19 19.5 32 19.5V78c-12 0-22-7-27-15l-6-11c-2.5-4-6.3-7-10.7-7-1.9 0-3.2.7-5 .7L36 58v32h13v-24l13-8z"/>
  </g>
</svg>
